<svg width="220" height="220" viewBox="0 0 220 220" fill="none" xmlns="http://www.w3.org/2000/svg">
  <defs>
    <radialGradient id="jellyBell" cx="0" cy="0" r="1" gradientUnits="userSpaceOnUse" gradientTransform="translate(106 72) rotate(90) scale(58 76)">
      <stop offset="0" stop-color="#d4e0e6" stop-opacity="0.86"/>
      <stop offset="0.6" stop-color="#a3b5bf" stop-opacity="0.62"/>
      <stop offset="1" stop-color="#6e8794" stop-opacity="0.42"/>
    </radialGradient>
  </defs>
  <path d="M48 86C48 54 77 30 110 30C143 30 172 54 172 86C172 101 164 112 151 120C136 129 123 133 110 133C97 133 84 129 69 120C56 112 48 101 48 86Z" fill="url(#jellyBell)"/>
  <path d="M58 92C75 108 95 114 110 114C125 114 145 108 162 92" stroke="#c6d5dd" stroke-opacity="0.72" stroke-width="5" stroke-linecap="round"/>
  <ellipse cx="95" cy="82" rx="10" ry="8" fill="#90a8b6" fill-opacity="0.35"/>
  <ellipse cx="124" cy="82" rx="9" ry="7" fill="#90a8b6" fill-opacity="0.32"/>
  <path d="M78 119C77 143 69 170 72 204" stroke="#98b1be" stroke-width="3.2" stroke-linecap="round"/>
  <path d="M94 120C92 148 88 175 89 205" stroke="#9eb6c2" stroke-width="3.1" stroke-linecap="round"/>
  <path d="M110 120C109 149 108 176 111 205" stroke="#a6bdc8" stroke-width="3" stroke-linecap="round"/>
  <path d="M126 120C127 148 132 175 136 205" stroke="#99b2bf" stroke-width="3.1" stroke-linecap="round"/>
  <path d="M142 119C145 143 154 170 151 204" stroke="#92acba" stroke-width="3.2" stroke-linecap="round"/>
  <path d="M88 118C80 139 76 159 80 179" stroke="#adc0ca" stroke-opacity="0.6" stroke-width="2" stroke-linecap="round"/>
  <path d="M134 118C142 139 146 159 142 179" stroke="#adc0ca" stroke-opacity="0.6" stroke-width="2" stroke-linecap="round"/>
</svg>
