<svg width="300" height="120" viewBox="0 0 300 120" fill="none" xmlns="http://www.w3.org/2000/svg">
  <defs>
    <linearGradient id="schoolBody" x1="0" y1="0" x2="34" y2="18" gradientUnits="userSpaceOnUse">
      <stop offset="0" stop-color="#a8bcc7"/>
      <stop offset="0.6" stop-color="#6f8a99"/>
      <stop offset="1" stop-color="#4c6676"/>
    </linearGradient>
  </defs>
  <g transform="translate(26 52) scale(1.05)">
    <path d="M0 8C6 1 16 -1 25 2C20 4 16 8 15 13C9 14 4 12 0 8Z" fill="url(#schoolBody)"/>
    <path d="M15 13L9 17L8 10L15 13Z" fill="#597383"/>
    <circle cx="20" cy="6" r="1" fill="#1f313d"/>
  </g>
  <g transform="translate(74 34) scale(1.1)">
    <path d="M0 8C6 1 16 -1 25 2C20 4 16 8 15 13C9 14 4 12 0 8Z" fill="url(#schoolBody)"/>
    <path d="M15 13L9 17L8 10L15 13Z" fill="#597383"/>
    <circle cx="20" cy="6" r="1" fill="#1f313d"/>
  </g>
  <g transform="translate(114 62) scale(1.18)">
    <path d="M0 8C6 1 16 -1 25 2C20 4 16 8 15 13C9 14 4 12 0 8Z" fill="url(#schoolBody)"/>
    <path d="M15 13L9 17L8 10L15 13Z" fill="#597383"/>
    <circle cx="20" cy="6" r="1" fill="#1f313d"/>
  </g>
  <g transform="translate(170 44) scale(1.14)">
    <path d="M0 8C6 1 16 -1 25 2C20 4 16 8 15 13C9 14 4 12 0 8Z" fill="url(#schoolBody)"/>
    <path d="M15 13L9 17L8 10L15 13Z" fill="#597383"/>
    <circle cx="20" cy="6" r="1" fill="#1f313d"/>
  </g>
  <g transform="translate(212 62) scale(1.08)">
    <path d="M0 8C6 1 16 -1 25 2C20 4 16 8 15 13C9 14 4 12 0 8Z" fill="url(#schoolBody)"/>
    <path d="M15 13L9 17L8 10L15 13Z" fill="#597383"/>
    <circle cx="20" cy="6" r="1" fill="#1f313d"/>
  </g>
</svg>
