<svg width="220" height="160" viewBox="0 0 220 160" fill="none" xmlns="http://www.w3.org/2000/svg">
  <ellipse cx="110" cy="80" rx="48" ry="34" fill="#c7f1ff" fill-opacity="0.55"/>
  <ellipse cx="110" cy="80" rx="20" ry="14" fill="#dff7ff" fill-opacity="0.5"/>
  <path d="M60 75C40 60 30 40 38 30C55 40 72 56 76 70" fill="#c7f1ff" fill-opacity="0.5"/>
  <path d="M160 75C180 60 190 40 182 30C165 40 148 56 144 70" fill="#c7f1ff" fill-opacity="0.5"/>
  <path d="M80 110C70 125 60 135 48 138C55 120 68 108 80 100" fill="#c7f1ff" fill-opacity="0.45"/>
  <path d="M140 110C150 125 160 135 172 138C165 120 152 108 140 100" fill="#c7f1ff" fill-opacity="0.45"/>
  <circle cx="110" cy="52" r="5" fill="#e8fbff" fill-opacity="0.7"/>
</svg>
