<svg width="220" height="160" viewBox="0 0 220 160" fill="none" xmlns="http://www.w3.org/2000/svg">
  <defs>
    <radialGradient id="turtleShell" cx="0" cy="0" r="1" gradientUnits="userSpaceOnUse" gradientTransform="translate(108 74) rotate(20) scale(70 54)">
      <stop offset="0" stop-color="#7f8f68"/>
      <stop offset="0.65" stop-color="#647751"/>
      <stop offset="1" stop-color="#46563b"/>
    </radialGradient>
    <linearGradient id="turtleSkin" x1="36" y1="38" x2="194" y2="124" gradientUnits="userSpaceOnUse">
      <stop offset="0" stop-color="#708a76"/>
      <stop offset="1" stop-color="#4f6656"/>
    </linearGradient>
  </defs>
  <path d="M108 36C79 36 58 53 56 78C54 106 76 124 108 124C140 124 162 106 160 78C158 52 136 36 108 36Z" fill="url(#turtleShell)"/>
  <path d="M109 46C90 46 74 59 73 78C72 96 87 108 109 108C131 108 146 95 145 78C144 60 128 46 109 46Z" stroke="#9dac8a" stroke-opacity="0.45" stroke-width="2"/>
  <path d="M108 52L109 102M84 61C95 70 123 70 134 61M80 79C94 89 124 89 138 79" stroke="#c8d3bb" stroke-opacity="0.35" stroke-width="2" stroke-linecap="round"/>
  <path d="M56 78C40 70 26 53 30 36C46 45 60 58 67 73" fill="url(#turtleSkin)"/>
  <path d="M160 78C176 70 190 53 186 36C170 45 156 58 149 73" fill="url(#turtleSkin)"/>
  <path d="M83 107C74 121 61 130 48 132C56 119 67 109 80 102" fill="#57705e"/>
  <path d="M137 107C146 121 159 130 172 132C164 119 153 109 140 102" fill="#57705e"/>
  <path d="M108 35C119 29 130 28 138 32C136 40 126 47 112 49" fill="url(#turtleSkin)"/>
  <circle cx="125" cy="39" r="2.2" fill="#223228"/>
</svg>
