<svg width="220" height="220" viewBox="0 0 220 220" fill="none" xmlns="http://www.w3.org/2000/svg">
  <defs>
    <linearGradient id="squidBody" x1="78" y1="34" x2="144" y2="164" gradientUnits="userSpaceOnUse">
      <stop offset="0" stop-color="#8ca3af"/>
      <stop offset="0.6" stop-color="#607985"/>
      <stop offset="1" stop-color="#445c68"/>
    </linearGradient>
  </defs>
  <path d="M110 24C132 24 146 43 146 73C146 102 136 124 122 134H98C84 124 74 102 74 73C74 43 88 24 110 24Z" fill="url(#squidBody)"/>
  <path d="M74 72C61 69 51 61 46 50C58 52 70 57 78 66" fill="#5b7480"/>
  <path d="M146 72C159 69 169 61 174 50C162 52 150 57 142 66" fill="#5b7480"/>
  <ellipse cx="96" cy="62" rx="6" ry="7" fill="#273b46"/>
  <ellipse cx="124" cy="62" rx="6" ry="7" fill="#273b46"/>
  <circle cx="98" cy="60" r="1.3" fill="#d9e4ea"/>
  <circle cx="126" cy="60" r="1.3" fill="#d9e4ea"/>
  <path d="M90 134C84 154 74 176 68 202" stroke="#6b8793" stroke-width="4.2" stroke-linecap="round"/>
  <path d="M102 134C98 157 93 179 91 204" stroke="#6f8a96" stroke-width="4.2" stroke-linecap="round"/>
  <path d="M114 134C116 157 121 180 127 204" stroke="#6d8894" stroke-width="4.2" stroke-linecap="round"/>
  <path d="M126 134C134 154 146 176 154 202" stroke="#67838f" stroke-width="4.2" stroke-linecap="round"/>
  <path d="M98 138C95 159 90 181 83 200" stroke="#8da4b0" stroke-opacity="0.65" stroke-width="2.2" stroke-linecap="round"/>
  <path d="M122 138C125 159 130 181 137 200" stroke="#8da4b0" stroke-opacity="0.65" stroke-width="2.2" stroke-linecap="round"/>
</svg>
